<svg width="12" height="12" viewBox="0 0 12 12" fill="none" xmlns="http://www.w3.org/2000/svg">
    <path d="M6 1.125A4.88 4.88 0 0 0 1.125 6 4.88 4.88 0 0 0 6 10.875 4.88 4.88 0 0 0 10.875 6 4.88 4.88 0 0 0 6 1.125zm3.224 2.248a4.14 4.14 0 0 1 .94 2.594c-.137-.03-1.514-.308-2.9-.133a12.742 12.742 0 0 0-.366-.818c1.54-.63 2.238-1.524 2.326-1.643zM6 1.843c1.058 0 2.025.396 2.76 1.048-.075.107-.702.95-2.182 1.505a22.043 22.043 0 0 0-1.554-2.438A4.15 4.15 0 0 1 6 1.842zm-1.77.395c.11.15.854 1.183 1.543 2.408-1.948.517-3.664.51-3.85.508a4.181 4.181 0 0 1 2.306-2.916zM1.835 6.006c0-.042.001-.086.003-.128.181.004 2.2.03 4.28-.593.119.233.233.47.337.707-.055.015-.11.031-.164.049-2.148.696-3.29 2.589-3.386 2.75a4.15 4.15 0 0 1-1.07-2.785zM6 10.169c-.963 0-1.85-.328-2.556-.878.075-.154.918-1.782 3.266-2.6l.027-.01c.585 1.519.826 2.792.888 3.158A4.106 4.106 0 0 1 6 10.17zm2.326-.71a17.87 17.87 0 0 0-.808-2.97 6.118 6.118 0 0 1 2.593.179 4.166 4.166 0 0 1-1.785 2.79z" fill="#AF48FF"/>
</svg>
