<svg width="12" height="12" viewBox="0 0 12 12" fill="none" xmlns="http://www.w3.org/2000/svg">
    <path d="M9.934 1.313H2.066a.754.754 0 0 0-.753.753v7.868c0 .416.337.754.753.754h7.868a.754.754 0 0 0 .754-.754V2.066a.754.754 0 0 0-.754-.753zm0 8.624c-5.248 0-7.871-.002-7.871-.003 0-5.248.002-7.871.003-7.871 5.248 0 7.872.002 7.872.003l-.004 7.872zm-7.232-5.11h1.391V9.3h-1.39V4.827zm.696-.612a.807.807 0 1 0-.001-1.614.807.807 0 0 0 .001 1.614zm2.957 2.873c0-.584.111-1.149.834-1.149.713 0 .723.667.723 1.186v2.176h1.39V6.847c0-1.204-.26-2.131-1.667-2.131-.676 0-1.13.371-1.316.723H6.3v-.612H4.965V9.3h1.39V7.088z" fill="#AF48FF"/>
</svg>
