<svg width="12" height="12" viewBox="0 0 12 12" fill="none" xmlns="http://www.w3.org/2000/svg">
    <path d="M5.995.894A5.24 5.24 0 0 0 .75 6.134a5.246 5.246 0 0 0 3.513 4.952c.276.07.233-.127.233-.26v-.908c-1.59.186-1.654-.866-1.76-1.042-.216-.368-.726-.462-.574-.638.362-.186.731.047 1.16.679.308.458.912.38 1.218.304.067-.275.21-.521.406-.712-1.647-.295-2.334-1.3-2.334-2.496 0-.58.191-1.113.566-1.543-.239-.71.022-1.316.058-1.407.68-.06 1.388.488 1.443.531.387-.104.829-.16 1.323-.16.497 0 .94.058 1.33.164.133-.101.79-.572 1.422-.515.034.09.29.683.064 1.383.38.431.573.97.573 1.55 0 1.198-.691 2.205-2.343 2.495a1.494 1.494 0 0 1 .446 1.067v1.318c.01.106 0 .21.176.21A5.242 5.242 0 0 0 5.995.894z" fill="#AF48FF"/>
</svg>
