<svg width="12" height="13" viewBox="0 0 12 13" fill="none" xmlns="http://www.w3.org/2000/svg">
    <path d="M6.727 8.298a.094.094 0 0 0-.133 0L5.232 9.659c-.63.63-1.694.698-2.39 0a1.683 1.683 0 0 1 0-2.39l1.362-1.362a.094.094 0 0 0 0-.132l-.467-.467a.094.094 0 0 0-.132 0L2.243 6.67a2.534 2.534 0 0 0 0 3.586c.991.99 2.596.991 3.586 0L7.19 8.894a.094.094 0 0 0 0-.132l-.464-.464zm3.03-5.555a2.534 2.534 0 0 0-3.586 0L4.808 4.105a.094.094 0 0 0 0 .132l.465.465a.094.094 0 0 0 .133 0l1.362-1.361a1.683 1.683 0 0 1 2.39 0c.697.697.63 1.76 0 2.39L7.796 7.093a.094.094 0 0 0 0 .132l.467.467a.094.094 0 0 0 .132 0L9.757 6.33c.99-.991.99-2.596 0-3.587zM7.15 4.863a.094.094 0 0 0-.133 0L4.363 7.516a.094.094 0 0 0 0 .132l.464.465a.094.094 0 0 0 .132 0l2.654-2.654a.094.094 0 0 0 0-.132l-.463-.464z" fill="#AF48FF"/>
</svg>
